<svg width="20" height="18" viewBox="0 0 20 18" fill="none" xmlns="http://www.w3.org/2000/svg">
<path d="M9.98999 1.47979C10.7158 0.804432 11.548 0.359606 12.4866 0.145311C13.4252 -0.0689831 14.3513 -0.046257 15.2648 0.213495C16.2159 0.486235 17.0387 0.983011 17.7333 1.70382C18.4278 2.42463 18.9065 3.27857 19.1693 4.26562C19.4196 5.21372 19.4415 6.17155 19.235 7.13913C19.0285 8.1067 18.5999 8.97363 17.9491 9.73989L9.98999 18L2.03086 9.73989C1.38011 8.97363 0.951498 8.1067 0.745011 7.13913C0.538524 6.17155 0.560424 5.21372 0.810711 4.26562C1.07351 3.27857 1.55532 2.42463 2.25612 1.70382C2.95692 0.983011 3.77661 0.486235 4.71519 0.213495C5.62874 -0.046257 6.5548 -0.0689831 7.49338 0.145311C8.43196 0.359606 9.26416 0.804432 9.98999 1.47979ZM16.3911 3.07726C15.9281 2.59672 15.3899 2.26878 14.7767 2.09345C14.1635 1.91812 13.5441 1.90188 12.9184 2.04475C12.2926 2.18761 11.7357 2.48632 11.2477 2.94089L9.98999 4.10977L8.7323 2.94089C8.25676 2.48632 7.703 2.18761 7.07102 2.04475C6.43904 1.90188 5.81646 1.91812 5.20325 2.09345C4.59005 2.26878 4.05193 2.59672 3.5889 3.07726C3.12587 3.5578 2.80675 4.11627 2.63155 4.75266C2.45635 5.38905 2.43445 6.02869 2.56585 6.67158C2.69725 7.31446 2.9757 7.88916 3.40118 8.39568L9.98999 15.2531L16.5788 8.39568C17.0043 7.88916 17.2827 7.31446 17.4141 6.67158C17.5455 6.02869 17.5236 5.38905 17.3484 4.75266C17.1732 4.11627 16.8541 3.5578 16.3911 3.07726Z" fill="#CC2C2C"/>
<path d="M16.3911 3.07726C15.9281 2.59672 15.3899 2.26878 14.7767 2.09345C14.1635 1.91812 13.5441 1.90188 12.9184 2.04475C12.2926 2.18761 11.7357 2.48632 11.2477 2.94089L9.98999 4.10977L8.7323 2.94089C8.25676 2.48632 7.703 2.18761 7.07102 2.04475C6.43904 1.90188 5.81646 1.91812 5.20325 2.09345C4.59005 2.26878 4.05193 2.59672 3.5889 3.07726C3.12587 3.5578 2.80675 4.11627 2.63155 4.75266C2.45635 5.38905 2.43445 6.02869 2.56585 6.67158C2.69725 7.31446 2.9757 7.88916 3.40118 8.39568L9.98999 15.2531L16.5788 8.39568C17.0043 7.88916 17.2827 7.31446 17.4141 6.67158C17.5455 6.02869 17.5236 5.38905 17.3484 4.75266C17.1732 4.11627 16.8541 3.5578 16.3911 3.07726Z" fill="#CC2C2C"/>
<path d="M16.3911 3.07726C15.9281 2.59672 15.3899 2.26878 14.7767 2.09345C14.1635 1.91812 13.5441 1.90188 12.9184 2.04475C12.2926 2.18761 11.7357 2.48632 11.2477 2.94089L9.98999 4.10977L8.7323 2.94089C8.25676 2.48632 7.703 2.18761 7.07102 2.04475C6.43904 1.90188 5.81646 1.91812 5.20325 2.09345C4.59005 2.26878 4.05193 2.59672 3.5889 3.07726C3.12587 3.5578 2.80675 4.11627 2.63155 4.75266C2.45635 5.38905 2.43445 6.02869 2.56585 6.67158C2.69725 7.31446 2.9757 7.88916 3.40118 8.39568L9.98999 15.2531L16.5788 8.39568C17.0043 7.88916 17.2827 7.31446 17.4141 6.67158C17.5455 6.02869 17.5236 5.38905 17.3484 4.75266C17.1732 4.11627 16.8541 3.5578 16.3911 3.07726Z" fill="#CC2C2C"/>
</svg>
