<svg width="16" height="15" viewBox="0 0 16 15" fill="none" xmlns="http://www.w3.org/2000/svg">
<path d="M8.09371 2.9968C8.54466 2.59236 9.0617 2.32597 9.64482 2.19764C10.2279 2.0693 10.8033 2.08291 11.3709 2.23847C11.9618 2.4018 12.473 2.6993 12.9045 3.13097C13.336 3.56264 13.6334 4.07403 13.7967 4.66514C13.9522 5.23291 13.9658 5.80653 13.8375 6.38597C13.7092 6.96541 13.4429 7.48458 13.0386 7.94347L8.09371 12.8901L3.14881 7.94347C2.74451 7.48458 2.47822 6.96541 2.34993 6.38597C2.22164 5.80653 2.23525 5.23291 2.39075 4.66514C2.55402 4.07403 2.85336 3.56264 3.28876 3.13097C3.72416 2.6993 4.23342 2.4018 4.81655 2.23847C5.38412 2.08291 5.95947 2.0693 6.5426 2.19764C7.12572 2.32597 7.64276 2.59236 8.09371 2.9968ZM12.0706 3.95347C11.7829 3.66569 11.4486 3.4693 11.0676 3.3643C10.6867 3.2593 10.3018 3.24958 9.91306 3.33514C9.52431 3.42069 9.17832 3.59958 8.8751 3.8718L8.09371 4.5718L7.31232 3.8718C7.01687 3.59958 6.67283 3.42069 6.28019 3.33514C5.88755 3.24958 5.50075 3.2593 5.11977 3.3643C4.7388 3.4693 4.40447 3.66569 4.1168 3.95347C3.82912 4.24125 3.63086 4.57569 3.52201 4.9568C3.41316 5.33791 3.39955 5.72097 3.48119 6.10597C3.56283 6.49097 3.73582 6.83514 4.00017 7.13847L8.09371 11.2451L12.1872 7.13847C12.4516 6.83514 12.6246 6.49097 12.7062 6.10597C12.7879 5.72097 12.7743 5.33791 12.6654 4.9568C12.5566 4.57569 12.3583 4.24125 12.0706 3.95347Z" fill="#6B7280"/>
</svg>
