<svg width="18" height="16" viewBox="0 0 18 16" fill="none" xmlns="http://www.w3.org/2000/svg">
<path d="M9.17188 13.36L12.4632 10.0533C13.0672 9.45777 13.4759 8.75555 13.6891 7.94666C13.8934 7.15555 13.8934 6.36443 13.6891 5.57332C13.4759 4.76443 13.0694 4.05999 12.4698 3.45999C11.8702 2.85999 11.1662 2.45332 10.3578 2.23999C9.56719 2.03555 8.77657 2.03555 7.98595 2.23999C7.17757 2.45332 6.47357 2.85999 5.87394 3.45999C5.27432 4.05999 4.8679 4.76443 4.6547 5.57332C4.45039 6.36443 4.45039 7.15555 4.6547 7.94666C4.8679 8.75555 5.27654 9.45777 5.8806 10.0533L9.17188 13.36ZM9.17188 15.24L4.93453 11C4.16168 10.2355 3.642 9.32888 3.3755 8.27999C3.109 7.26666 3.109 6.25332 3.3755 5.23999C3.642 4.1911 4.15946 3.28221 4.92787 2.51332C5.69627 1.74443 6.6046 1.22221 7.65283 0.946656C8.66553 0.688879 9.67823 0.688879 10.6909 0.946656C11.7392 1.22221 12.6475 1.74443 13.4159 2.51332C14.1843 3.28221 14.7018 4.1911 14.9683 5.23999C15.2348 6.25332 15.2348 7.26666 14.9683 8.27999C14.7018 9.32888 14.1821 10.2355 13.4092 11L9.17188 15.24ZM9.17188 8.09332C9.41173 8.09332 9.63381 8.03332 9.83813 7.91332C10.0424 7.79332 10.2046 7.6311 10.3245 7.42666C10.4444 7.22221 10.5044 6.99999 10.5044 6.75999C10.5044 6.51999 10.4444 6.29777 10.3245 6.09332C10.2046 5.88888 10.0424 5.72666 9.83813 5.60666C9.63381 5.48666 9.41173 5.42666 9.17188 5.42666C8.93203 5.42666 8.70995 5.48666 8.50563 5.60666C8.30131 5.72666 8.13919 5.88888 8.01927 6.09332C7.89934 6.29777 7.83938 6.51999 7.83938 6.75999C7.83938 6.99999 7.89934 7.22221 8.01927 7.42666C8.13919 7.6311 8.30131 7.79332 8.50563 7.91332C8.70995 8.03332 8.93203 8.09332 9.17188 8.09332ZM9.17188 9.42666C8.69218 9.42666 8.24801 9.30666 7.83938 9.06666C7.43075 8.82666 7.1065 8.50221 6.86665 8.09332C6.6268 7.68443 6.50688 7.23777 6.50688 6.75332C6.50688 6.26888 6.6268 5.82443 6.86665 5.41999C7.1065 5.01555 7.43075 4.69332 7.83938 4.45332C8.24801 4.21332 8.69218 4.09332 9.17188 4.09332C9.65158 4.09332 10.0957 4.21332 10.5044 4.45332C10.913 4.69332 11.2373 5.01555 11.4771 5.41999C11.717 5.82443 11.8369 6.26888 11.8369 6.75332C11.8369 7.23777 11.717 7.68443 11.4771 8.09332C11.2373 8.50221 10.913 8.82666 10.5044 9.06666C10.0957 9.30666 9.65158 9.42666 9.17188 9.42666Z" fill="#F97316"/>
</svg>
