<svg width="16" height="15" viewBox="0 0 16 15" fill="none" xmlns="http://www.w3.org/2000/svg">
<path d="M5.25926 12.6452L2.1687 13.3335L2.85679 10.2418C2.39806 9.39405 2.1687 8.48016 2.1687 7.50016C2.1687 6.70683 2.32031 5.9485 2.62354 5.22516C2.91899 4.53294 3.33689 3.91655 3.87726 3.376C4.41762 2.83544 5.03379 2.41739 5.72576 2.12183C6.44884 1.8185 7.2069 1.66683 7.99995 1.66683C8.793 1.66683 9.55106 1.8185 10.2741 2.12183C10.9661 2.41739 11.5823 2.83544 12.1226 3.376C12.663 3.91655 13.0809 4.53294 13.3764 5.22516C13.6796 5.9485 13.8312 6.70683 13.8312 7.50016C13.8312 8.2935 13.6796 9.05183 13.3764 9.77516C13.0809 10.4674 12.663 11.0838 12.1226 11.6243C11.5823 12.1649 10.9661 12.5829 10.2741 12.8785C9.55106 13.1818 8.793 13.3335 7.99995 13.3335C7.0203 13.3335 6.10674 13.1041 5.25926 12.6452ZM5.42254 11.4202L5.8074 11.6185C6.4916 11.9841 7.22245 12.1668 7.99995 12.1668C8.84743 12.1668 9.6327 11.9529 10.3558 11.5252C11.0555 11.1129 11.6114 10.5568 12.0235 9.85683C12.4511 9.1335 12.665 8.34794 12.665 7.50016C12.665 6.65238 12.4511 5.86683 12.0235 5.1435C11.6114 4.4435 11.0555 3.88739 10.3558 3.47516C9.6327 3.04739 8.84743 2.8335 7.99995 2.8335C7.15248 2.8335 6.3672 3.04739 5.64413 3.47516C4.94438 3.88739 4.38846 4.4435 3.97639 5.1435C3.54876 5.86683 3.33495 6.65238 3.33495 7.50016C3.33495 8.27794 3.51766 9.00905 3.88309 9.6935L4.08135 10.0785L3.70815 11.7935L5.42254 11.4202Z" fill="#6B7280"/>
</svg>
