<svg width="17" height="17" viewBox="0 0 17 17" fill="none" xmlns="http://www.w3.org/2000/svg">
<path d="M8.33594 13.86L11.6272 10.5533C12.2313 9.95777 12.6399 9.25555 12.8531 8.44666C13.0574 7.65555 13.0574 6.86443 12.8531 6.07332C12.6399 5.26443 12.2335 4.55999 11.6339 3.95999C11.0343 3.35999 10.3302 2.95332 9.52187 2.73999C8.73125 2.53555 7.94063 2.53555 7.15002 2.73999C6.34163 2.95332 5.63763 3.35999 5.038 3.95999C4.43838 4.55999 4.03197 5.26443 3.81877 6.07332C3.61445 6.86443 3.61445 7.65555 3.81877 8.44666C4.03197 9.25555 4.4406 9.95777 5.04467 10.5533L8.33594 13.86ZM8.33594 15.74L4.09859 11.5C3.32574 10.7355 2.80607 9.82888 2.53957 8.77999C2.27307 7.76666 2.27307 6.75332 2.53957 5.73999C2.80607 4.6911 3.32352 3.78221 4.09193 3.01332C4.86034 2.24443 5.76866 1.72221 6.81689 1.44666C7.82959 1.18888 8.84229 1.18888 9.85499 1.44666C10.9032 1.72221 11.8115 2.24443 12.58 3.01332C13.3484 3.78221 13.8658 4.6911 14.1323 5.73999C14.3988 6.75332 14.3988 7.76666 14.1323 8.77999C13.8658 9.82888 13.3461 10.7355 12.5733 11.5L8.33594 15.74ZM8.33594 8.59332C8.57579 8.59332 8.79787 8.53332 9.00219 8.41332C9.20651 8.29332 9.36863 8.1311 9.48855 7.92666C9.60848 7.72221 9.66844 7.49999 9.66844 7.25999C9.66844 7.01999 9.60848 6.79777 9.48855 6.59332C9.36863 6.38888 9.20651 6.22666 9.00219 6.10666C8.79787 5.98666 8.57579 5.92666 8.33594 5.92666C8.09609 5.92666 7.87401 5.98666 7.66969 6.10666C7.46537 6.22666 7.30325 6.38888 7.18333 6.59332C7.0634 6.79777 7.00344 7.01999 7.00344 7.25999C7.00344 7.49999 7.0634 7.72221 7.18333 7.92666C7.30325 8.1311 7.46537 8.29332 7.66969 8.41332C7.87401 8.53332 8.09609 8.59332 8.33594 8.59332ZM8.33594 9.92666C7.85624 9.92666 7.41207 9.80666 7.00344 9.56666C6.59481 9.32666 6.27057 9.00221 6.03072 8.59332C5.79087 8.18443 5.67094 7.73777 5.67094 7.25332C5.67094 6.76888 5.79087 6.32443 6.03072 5.91999C6.27057 5.51555 6.59481 5.19332 7.00344 4.95332C7.41207 4.71332 7.85624 4.59332 8.33594 4.59332C8.81564 4.59332 9.25981 4.71332 9.66844 4.95332C10.0771 5.19332 10.4013 5.51555 10.6412 5.91999C10.881 6.32443 11.0009 6.76888 11.0009 7.25332C11.0009 7.73777 10.881 8.18443 10.6412 8.59332C10.4013 9.00221 10.0771 9.32666 9.66844 9.56666C9.25981 9.80666 8.81564 9.92666 8.33594 9.92666Z" fill="white"/>
</svg>
