<svg width="18" height="17" viewBox="0 0 18 17" fill="none" xmlns="http://www.w3.org/2000/svg">
<path d="M3.66223 15.5C3.66223 14.5311 3.90652 13.6333 4.39511 12.8067C4.86592 12.0067 5.50108 11.3711 6.30058 10.9C7.12673 10.4111 8.02395 10.1667 8.99223 10.1667C9.96052 10.1667 10.8577 10.4111 11.6839 10.9C12.4834 11.3711 13.1185 12.0067 13.5894 12.8067C14.0779 13.6333 14.3222 14.5311 14.3222 15.5H12.9897C12.9897 14.78 12.8076 14.1089 12.4434 13.4867C12.0881 12.8822 11.6084 12.4022 11.0043 12.0467C10.3825 11.6822 9.71178 11.5 8.99223 11.5C8.27268 11.5 7.60199 11.6822 6.98016 12.0467C6.37609 12.4022 5.89639 12.8822 5.54106 13.4867C5.17684 14.1089 4.99473 14.78 4.99473 15.5H3.66223ZM8.99223 9.5C8.2638 9.5 7.59311 9.31778 6.98016 8.95333C6.37609 8.59778 5.89639 8.11778 5.54106 7.51333C5.17684 6.9 4.99473 6.22889 4.99473 5.5C4.99473 4.77111 5.17684 4.1 5.54106 3.48667C5.89639 2.88222 6.37609 2.40222 6.98016 2.04667C7.59311 1.68222 8.2638 1.5 8.99223 1.5C9.72066 1.5 10.3914 1.68222 11.0043 2.04667C11.6084 2.40222 12.0881 2.88222 12.4434 3.48667C12.8076 4.1 12.9897 4.77111 12.9897 5.5C12.9897 6.22889 12.8076 6.9 12.4434 7.51333C12.0881 8.11778 11.6084 8.59778 11.0043 8.95333C10.3914 9.31778 9.72066 9.5 8.99223 9.5ZM8.99223 8.16667C9.47193 8.16667 9.9161 8.04667 10.3247 7.80667C10.7334 7.56667 11.0576 7.24222 11.2975 6.83333C11.5373 6.42444 11.6572 5.98 11.6572 5.5C11.6572 5.02 11.5373 4.57555 11.2975 4.16667C11.0576 3.75778 10.7334 3.43333 10.3247 3.19333C9.9161 2.95333 9.47193 2.83333 8.99223 2.83333C8.51253 2.83333 8.06836 2.95333 7.65973 3.19333C7.2511 3.43333 6.92686 3.75778 6.68701 4.16667C6.44716 4.57555 6.32723 5.02 6.32723 5.5C6.32723 5.98 6.44716 6.42444 6.68701 6.83333C6.92686 7.24222 7.2511 7.56667 7.65973 7.80667C8.06836 8.04667 8.51253 8.16667 8.99223 8.16667Z" fill="#6B7280"/>
</svg>
