<svg width="33" height="31" viewBox="0 0 33 31" fill="none" xmlns="http://www.w3.org/2000/svg">
<path d="M16.5 25.885L22.6781 19.4783C23.812 18.3244 24.579 16.9639 24.9792 15.3967C25.3628 13.8639 25.3628 12.3311 24.9792 10.7983C24.579 9.23111 23.8162 7.86625 22.6906 6.70375C21.565 5.54125 20.2435 4.75333 18.7261 4.34C17.242 3.94389 15.758 3.94389 14.2739 4.34C12.7565 4.75333 11.435 5.54125 10.3094 6.70375C9.18385 7.86625 8.42097 9.23111 8.02077 10.7983C7.63725 12.3311 7.63725 13.8639 8.02077 15.3967C8.42097 16.9639 9.18802 18.3244 10.3219 19.4783L16.5 25.885ZM16.5 29.5275L8.54603 21.3125C7.09531 19.8314 6.11982 18.0747 5.61957 16.0425C5.11932 14.0792 5.11932 12.1158 5.61957 10.1525C6.11982 8.12027 7.09114 6.3593 8.53353 4.86958C9.97592 3.37986 11.6809 2.36805 13.6486 1.83416C15.5495 1.33472 17.4505 1.33472 19.3514 1.83416C21.3191 2.36805 23.0241 3.37986 24.4665 4.86958C25.9089 6.3593 26.8802 8.12027 27.3804 10.1525C27.8807 12.1158 27.8807 14.0792 27.3804 16.0425C26.8802 18.0747 25.9047 19.8314 24.454 21.3125L16.5 29.5275ZM16.5 15.6808C16.9502 15.6808 17.3671 15.5646 17.7506 15.3321C18.1342 15.0996 18.4385 14.7853 18.6636 14.3892C18.8887 13.9931 19.0013 13.5625 19.0013 13.0975C19.0013 12.6325 18.8887 12.2019 18.6636 11.8058C18.4385 11.4097 18.1342 11.0954 17.7506 10.8629C17.3671 10.6304 16.9502 10.5142 16.5 10.5142C16.0498 10.5142 15.6329 10.6304 15.2494 10.8629C14.8659 11.0954 14.5615 11.4097 14.3364 11.8058C14.1113 12.2019 13.9988 12.6325 13.9988 13.0975C13.9988 13.5625 14.1113 13.9931 14.3364 14.3892C14.5615 14.7853 14.8659 15.0996 15.2494 15.3321C15.6329 15.5646 16.0498 15.6808 16.5 15.6808ZM16.5 18.2642C15.5996 18.2642 14.7658 18.0317 13.9988 17.5667C13.2317 17.1017 12.6231 16.4731 12.1728 15.6808C11.7226 14.8886 11.4975 14.0232 11.4975 13.0846C11.4975 12.146 11.7226 11.2849 12.1728 10.5012C12.6231 9.71764 13.2317 9.09333 13.9988 8.62833C14.7658 8.16333 15.5996 7.93083 16.5 7.93083C17.4005 7.93083 18.2342 8.16333 19.0013 8.62833C19.7683 9.09333 20.3769 9.71764 20.8272 10.5012C21.2774 11.2849 21.5025 12.146 21.5025 13.0846C21.5025 14.0232 21.2774 14.8886 20.8272 15.6808C20.3769 16.4731 19.7683 17.1017 19.0013 17.5667C18.2342 18.0317 17.4005 18.2642 16.5 18.2642Z" fill="#F97316"/>
</svg>
