<svg width="21" height="21" viewBox="0 0 21 21" fill="none" xmlns="http://www.w3.org/2000/svg">
<path d="M10.4219 4.06686C11.0667 3.48908 11.8059 3.10853 12.6397 2.92519C13.4734 2.74186 14.2961 2.76131 15.1076 2.98353C15.9524 3.21686 16.6834 3.64186 17.3003 4.25853C17.9173 4.87519 18.3425 5.60575 18.576 6.45019C18.7983 7.26131 18.8178 8.08075 18.6343 8.90853C18.4509 9.73631 18.0702 10.478 17.4921 11.1335L10.4219 18.2002L3.3517 11.1335C2.77363 10.478 2.39289 9.73631 2.20946 8.90853C2.02604 8.08075 2.04549 7.26131 2.26782 6.45019C2.50127 5.60575 2.92926 4.87519 3.5518 4.25853C4.17433 3.64186 4.90247 3.21686 5.73622 2.98353C6.54774 2.76131 7.37037 2.74186 8.20412 2.92519C9.03787 3.10853 9.77713 3.48908 10.4219 4.06686ZM16.1081 5.43353C15.6968 5.02242 15.2187 4.74186 14.674 4.59186C14.1293 4.44186 13.579 4.42797 13.0232 4.55019C12.4674 4.67242 11.9727 4.92797 11.5391 5.31686L10.4219 6.31686L9.30467 5.31686C8.88224 4.92797 8.39033 4.67242 7.82894 4.55019C7.26754 4.42797 6.71449 4.44186 6.16977 4.59186C5.62506 4.74186 5.14704 5.02242 4.73572 5.43353C4.32441 5.84464 4.04093 6.32242 3.8853 6.86686C3.72966 7.41131 3.71021 7.95853 3.82694 8.50853C3.94366 9.05853 4.19101 9.55019 4.56897 9.98353L10.4219 15.8502L16.2748 9.98353C16.6528 9.55019 16.9001 9.05853 17.0169 8.50853C17.1336 7.95853 17.1141 7.41131 16.9585 6.86686C16.8029 6.32242 16.5194 5.84464 16.1081 5.43353Z" fill="#4B5563"/>
</svg>
