<svg width="16" height="15" viewBox="0 0 16 15" fill="none" xmlns="http://www.w3.org/2000/svg">
<path d="M8.18759 2.25C9.21389 2.25 10.1858 2.48333 11.1032 2.95C11.9818 3.40111 12.7224 4.02528 13.3249 4.8225C13.9275 5.61972 14.3182 6.51222 14.497 7.5C14.3182 8.48778 13.9275 9.38028 13.3249 10.1775C12.7224 10.9747 11.9818 11.5989 11.1032 12.05C10.1858 12.5167 9.21389 12.75 8.18759 12.75C7.16129 12.75 6.18941 12.5167 5.27196 12.05C4.39339 11.5989 3.65282 10.9747 3.05026 10.1775C2.44769 9.38028 2.057 8.48778 1.87817 7.5C2.057 6.51222 2.44769 5.61972 3.05026 4.8225C3.65282 4.02528 4.39339 3.40111 5.27196 2.95C6.18941 2.48333 7.16129 2.25 8.18759 2.25ZM8.18759 11.5833C8.99619 11.5833 9.76591 11.4044 10.4968 11.0467C11.2043 10.7044 11.8049 10.2222 12.2986 9.6C12.7923 8.97778 13.1286 8.27778 13.3074 7.5C13.1286 6.72222 12.7923 6.02222 12.2986 5.4C11.8049 4.77778 11.2043 4.29556 10.4968 3.95333C9.76591 3.59556 8.99619 3.41667 8.18759 3.41667C7.37899 3.41667 6.60926 3.59556 5.87841 3.95333C5.17089 4.29556 4.57027 4.77778 4.07656 5.4C3.58284 6.02222 3.24657 6.72222 3.06775 7.5C3.24657 8.27778 3.58284 8.97778 4.07656 9.6C4.57027 10.2222 5.17089 10.7044 5.87841 11.0467C6.60926 11.4044 7.37899 11.5833 8.18759 11.5833ZM8.18759 10.125C7.71331 10.125 7.27597 10.0064 6.87556 9.76917C6.47514 9.53194 6.15637 9.21306 5.91923 8.8125C5.68209 8.41194 5.56352 7.97444 5.56352 7.5C5.56352 7.02556 5.68209 6.58806 5.91923 6.1875C6.15637 5.78694 6.47514 5.46806 6.87556 5.23083C7.27597 4.99361 7.71331 4.875 8.18759 4.875C8.66186 4.875 9.09921 4.99361 9.49962 5.23083C9.90003 5.46806 10.2188 5.78694 10.4559 6.1875C10.6931 6.58806 10.8116 7.02556 10.8116 7.5C10.8116 7.97444 10.6931 8.41194 10.4559 8.8125C10.2188 9.21306 9.90003 9.53194 9.49962 9.76917C9.09921 10.0064 8.66186 10.125 8.18759 10.125ZM8.18759 8.95833C8.45194 8.95833 8.69491 8.89222 8.91649 8.76C9.13808 8.62778 9.31496 8.45083 9.44714 8.22917C9.57931 8.0075 9.6454 7.76444 9.6454 7.5C9.6454 7.23556 9.57931 6.9925 9.44714 6.77083C9.31496 6.54917 9.13808 6.37222 8.91649 6.24C8.69491 6.10778 8.45194 6.04167 8.18759 6.04167C7.92324 6.04167 7.68027 6.10778 7.45868 6.24C7.23709 6.37222 7.06021 6.54917 6.92804 6.77083C6.79586 6.9925 6.72977 7.23556 6.72977 7.5C6.72977 7.76444 6.79586 8.0075 6.92804 8.22917C7.06021 8.45083 7.23709 8.62778 7.45868 8.76C7.68027 8.89222 7.92324 8.95833 8.18759 8.95833Z" fill="#6B7280"/>
</svg>
