<svg width="17" height="16" viewBox="0 0 17 16" fill="none" xmlns="http://www.w3.org/2000/svg">
<path d="M12.5853 10.9733L15.4395 13.8267L14.4925 14.7733L11.6383 11.92C11.1137 12.3378 10.5402 12.6578 9.91779 12.88C9.2598 13.1111 8.58404 13.2267 7.89049 13.2267C6.8057 13.2267 5.7965 12.9556 4.86287 12.4133C3.95592 11.88 3.24014 11.16 2.71554 10.2533C2.16425 9.32001 1.88861 8.31112 1.88861 7.22668C1.88861 6.14223 2.16425 5.13335 2.71554 4.20001C3.24014 3.29335 3.95592 2.57779 4.86287 2.05335C5.7965 1.50223 6.8057 1.22668 7.89049 1.22668C8.97527 1.22668 9.98447 1.50223 10.9181 2.05335C11.825 2.57779 12.5453 3.29335 13.0788 4.20001C13.6212 5.13335 13.8924 6.14223 13.8924 7.22668C13.8924 7.92001 13.7768 8.59557 13.5456 9.25335C13.3233 9.87557 13.0032 10.4489 12.5853 10.9733ZM11.2382 10.48C11.6561 10.0533 11.9807 9.56446 12.2118 9.01335C12.443 8.44446 12.5586 7.8489 12.5586 7.22668C12.5586 6.38223 12.3452 5.59557 11.9184 4.86668C11.5094 4.16446 10.9537 3.6089 10.2512 3.20001C9.52211 2.77335 8.73519 2.56001 7.89049 2.56001C7.04578 2.56001 6.25887 2.77335 5.52975 3.20001C4.82731 3.6089 4.27158 4.16446 3.86256 4.86668C3.43576 5.59557 3.22236 6.38223 3.22236 7.22668C3.22236 8.07112 3.43576 8.85779 3.86256 9.58668C4.27158 10.2889 4.82731 10.8445 5.52975 11.2533C6.25887 11.68 7.04578 11.8933 7.89049 11.8933C8.5129 11.8933 9.10864 11.7778 9.67771 11.5467C10.229 11.3156 10.718 10.9911 11.1448 10.5733L11.2382 10.48Z" fill="white"/>
</svg>
